<svg width="158" height="44" viewBox="0 0 158 44" fill="none" xmlns="http://www.w3.org/2000/svg">
<path d="M146.007 36.201C141.819 36.201 138.563 35.0911 136.239 32.8712C133.931 30.6364 132.776 27.4619 132.776 23.3477C132.776 19.1002 133.849 15.8443 135.995 13.58C138.141 11.3009 141.205 10.1613 145.186 10.1613C148.974 10.1613 151.897 11.1529 153.954 13.136C156.026 15.1043 157.062 17.9458 157.062 21.6605V25.5232H141.545C141.604 26.9292 142.115 28.0317 143.077 28.8309C144.053 29.6301 145.378 30.0296 147.05 30.0296C148.575 30.0296 149.973 29.8891 151.246 29.6079C152.534 29.3119 153.925 28.8161 155.419 28.1205V34.3585C154.058 35.0541 152.652 35.5351 151.202 35.8015C149.751 36.0679 148.02 36.201 146.007 36.201ZM145.496 16.0663C144.475 16.0663 143.617 16.3919 142.921 17.0431C142.24 17.6795 141.841 18.6858 141.722 20.0622H149.181C149.152 18.8486 148.804 17.8792 148.138 17.1541C147.487 16.4289 146.606 16.0663 145.496 16.0663Z" fill="white"/>
<path d="M131.854 32.7815L123.834 36.1032L110.616 4.19049L118.635 0.868828L131.854 32.7815Z" fill="white"/>
<path fill-rule="evenodd" clip-rule="evenodd" d="M112.334 10.6053V15.9775L102.367 29.1195H112.822V35.7571H75.7196V30.8066L86.1311 17.2429H76.319V10.6053H112.334ZM86.0867 29.1195L95.0944 17.2429H102.411L93.2945 29.1195H86.0867Z" fill="white"/>
<path d="M71.5683 35.7571H62.8884V10.6053H71.5683V35.7571ZM62.6664 4.3451C62.6664 3.04274 63.029 2.07337 63.7542 1.43699C64.4794 0.800612 65.6485 0.482422 67.2617 0.482422C68.8748 0.482422 70.0514 0.808011 70.7914 1.45919C71.5313 2.11037 71.9013 3.07234 71.9013 4.3451C71.9013 6.89061 70.3548 8.16337 67.2617 8.16337C64.1982 8.16337 62.6664 6.89061 62.6664 4.3451Z" fill="white"/>
<path d="M52.5746 35.7571L51.4869 32.627H50.9763C50.2511 33.7813 49.2373 34.6693 47.935 35.2909C46.6474 35.8977 45.1305 36.2011 43.3841 36.2011C40.6166 36.2011 38.4633 35.4019 36.9241 33.8035C35.385 32.1904 34.6154 29.9187 34.6154 26.9884V10.6053H43.2953V24.3466C43.2953 25.9894 43.5247 27.2326 43.9835 28.0761C44.4571 28.9197 45.2267 29.3415 46.2922 29.3415C47.787 29.3415 48.8526 28.7569 49.4889 27.5877C50.1253 26.4038 50.4435 24.4132 50.4435 21.6161V10.6053H59.1234V35.7571H52.5746Z" fill="white"/>
<path d="M31.583 19.485C31.583 26.8404 29.2447 31.7982 24.568 34.3585L32.4932 43.4824H21.5711L15.8437 36.2677L15.8215 36.2455V36.2233L15.7993 36.2011C10.7083 36.2011 6.8012 34.7729 4.07809 31.9166C1.36978 29.0603 0.015625 24.9016 0.015625 19.4406C0.015625 14.0388 1.36238 9.91711 4.05589 7.07561C6.76421 4.2193 10.6935 2.79115 15.8437 2.79115C21.0087 2.79115 24.9232 4.2045 27.5871 7.03121C30.251 9.85792 31.583 14.0092 31.583 19.485ZM9.25052 19.485C9.25052 25.76 11.4335 28.8975 15.7993 28.8975C18.0192 28.8975 19.662 28.1353 20.7276 26.611C21.8079 25.0866 22.3481 22.7113 22.3481 19.485C22.3481 16.2439 21.8005 13.8538 20.7054 12.3146C19.625 10.7607 18.0044 9.98371 15.8437 9.98371C11.4483 9.98371 9.25052 13.1508 9.25052 19.485Z" fill="white"/>
</svg>